<mxfile host="app.diagrams.net" agent="Mozilla/5.0 (Windows NT 10.0; Win64; x64) AppleWebKit/537.36 (KHTML, like Gecko) Chrome/128.0.0.0 YaBrowser/24.10.0.0 Safari/537.36" version="25.0.3">
  <diagram name="Страница — 1" id="oJUjejKNWVzJyNuPWAxo">
    <mxGraphModel dx="3434" dy="2676" grid="1" gridSize="10" guides="1" tooltips="1" connect="1" arrows="1" fold="1" page="1" pageScale="1" pageWidth="827" pageHeight="1169" math="0" shadow="0">
      <root>
        <mxCell id="0" />
        <mxCell id="1" parent="0" />
        <mxCell id="paAX79Z9PSshwWhRsaFM-103" style="edgeStyle=orthogonalEdgeStyle;rounded=0;orthogonalLoop=1;jettySize=auto;html=1;entryX=0.5;entryY=1;entryDx=0;entryDy=0;" edge="1" parent="1" source="paAX79Z9PSshwWhRsaFM-30" target="paAX79Z9PSshwWhRsaFM-97">
          <mxGeometry relative="1" as="geometry">
            <mxPoint x="-340" y="-200" as="targetPoint" />
            <Array as="points">
              <mxPoint x="345" y="-100" />
              <mxPoint x="-340" y="-100" />
            </Array>
          </mxGeometry>
        </mxCell>
        <mxCell id="paAX79Z9PSshwWhRsaFM-30" value="" style="rounded=0;whiteSpace=wrap;html=1;" vertex="1" parent="1">
          <mxGeometry x="60" y="10" width="570" height="650" as="geometry" />
        </mxCell>
        <mxCell id="paAX79Z9PSshwWhRsaFM-1" value="pymongo-api" style="rounded=1;whiteSpace=wrap;html=1;" vertex="1" parent="1">
          <mxGeometry x="290" y="30" width="120" height="60" as="geometry" />
        </mxCell>
        <mxCell id="paAX79Z9PSshwWhRsaFM-2" style="edgeStyle=orthogonalEdgeStyle;rounded=0;orthogonalLoop=1;jettySize=auto;html=1;exitX=0.5;exitY=1;exitDx=0;exitDy=0;entryX=0.5;entryY=0;entryDx=0;entryDy=0;" edge="1" parent="1" source="paAX79Z9PSshwWhRsaFM-1" target="paAX79Z9PSshwWhRsaFM-4">
          <mxGeometry relative="1" as="geometry">
            <mxPoint x="320" y="450" as="targetPoint" />
          </mxGeometry>
        </mxCell>
        <mxCell id="paAX79Z9PSshwWhRsaFM-3" style="edgeStyle=orthogonalEdgeStyle;rounded=0;orthogonalLoop=1;jettySize=auto;html=1;entryX=1;entryY=0.5;entryDx=0;entryDy=0;entryPerimeter=0;" edge="1" parent="1" source="paAX79Z9PSshwWhRsaFM-4" target="paAX79Z9PSshwWhRsaFM-10">
          <mxGeometry relative="1" as="geometry">
            <mxPoint x="350" y="350" as="targetPoint" />
          </mxGeometry>
        </mxCell>
        <mxCell id="paAX79Z9PSshwWhRsaFM-4" value="mongos-router" style="rounded=1;whiteSpace=wrap;html=1;" vertex="1" parent="1">
          <mxGeometry x="290" y="170" width="120" height="60" as="geometry" />
        </mxCell>
        <mxCell id="paAX79Z9PSshwWhRsaFM-5" style="edgeStyle=orthogonalEdgeStyle;rounded=0;orthogonalLoop=1;jettySize=auto;html=1;entryX=0;entryY=0.5;entryDx=0;entryDy=0;startArrow=classic;startFill=1;" edge="1" parent="1" source="paAX79Z9PSshwWhRsaFM-6" target="paAX79Z9PSshwWhRsaFM-4">
          <mxGeometry relative="1" as="geometry" />
        </mxCell>
        <mxCell id="paAX79Z9PSshwWhRsaFM-6" value="configSrv" style="rounded=1;whiteSpace=wrap;html=1;" vertex="1" parent="1">
          <mxGeometry x="80" y="170" width="120" height="60" as="geometry" />
        </mxCell>
        <mxCell id="paAX79Z9PSshwWhRsaFM-7" value="MongoDB" style="shape=cylinder3;whiteSpace=wrap;html=1;boundedLbl=1;backgroundOutline=1;size=15;" vertex="1" parent="1">
          <mxGeometry x="410" y="300" width="80" height="80" as="geometry" />
        </mxCell>
        <mxCell id="paAX79Z9PSshwWhRsaFM-8" value="&lt;div style=&quot;text-align: center;&quot;&gt;shard2&lt;/div&gt;" style="text;whiteSpace=wrap;html=1;" vertex="1" parent="1">
          <mxGeometry x="450" y="270" width="50" height="30" as="geometry" />
        </mxCell>
        <mxCell id="paAX79Z9PSshwWhRsaFM-9" style="edgeStyle=orthogonalEdgeStyle;rounded=0;orthogonalLoop=1;jettySize=auto;html=1;entryX=0.75;entryY=1;entryDx=0;entryDy=0;" edge="1" parent="1" source="paAX79Z9PSshwWhRsaFM-10" target="paAX79Z9PSshwWhRsaFM-6">
          <mxGeometry relative="1" as="geometry" />
        </mxCell>
        <mxCell id="paAX79Z9PSshwWhRsaFM-10" value="MongoDB&lt;br&gt;primary" style="shape=cylinder3;whiteSpace=wrap;html=1;boundedLbl=1;backgroundOutline=1;size=15;" vertex="1" parent="1">
          <mxGeometry x="230" y="300" width="80" height="80" as="geometry" />
        </mxCell>
        <mxCell id="paAX79Z9PSshwWhRsaFM-11" value="&lt;div style=&quot;text-align: center;&quot;&gt;shard1&lt;/div&gt;" style="text;whiteSpace=wrap;html=1;" vertex="1" parent="1">
          <mxGeometry x="250" y="260" width="40" height="30" as="geometry" />
        </mxCell>
        <mxCell id="paAX79Z9PSshwWhRsaFM-12" value="MongoDB&lt;div&gt;Sec&lt;/div&gt;" style="shape=cylinder3;whiteSpace=wrap;html=1;boundedLbl=1;backgroundOutline=1;size=15;" vertex="1" parent="1">
          <mxGeometry x="230" y="400" width="80" height="80" as="geometry" />
        </mxCell>
        <mxCell id="paAX79Z9PSshwWhRsaFM-13" value="MongoDB&lt;div&gt;Sec&lt;/div&gt;" style="shape=cylinder3;whiteSpace=wrap;html=1;boundedLbl=1;backgroundOutline=1;size=15;" vertex="1" parent="1">
          <mxGeometry x="230" y="500" width="80" height="80" as="geometry" />
        </mxCell>
        <mxCell id="paAX79Z9PSshwWhRsaFM-14" value="MongoDB" style="shape=cylinder3;whiteSpace=wrap;html=1;boundedLbl=1;backgroundOutline=1;size=15;" vertex="1" parent="1">
          <mxGeometry x="410" y="400" width="80" height="80" as="geometry" />
        </mxCell>
        <mxCell id="paAX79Z9PSshwWhRsaFM-15" value="MongoDB" style="shape=cylinder3;whiteSpace=wrap;html=1;boundedLbl=1;backgroundOutline=1;size=15;" vertex="1" parent="1">
          <mxGeometry x="410" y="500" width="80" height="80" as="geometry" />
        </mxCell>
        <mxCell id="paAX79Z9PSshwWhRsaFM-16" value="" style="rounded=0;whiteSpace=wrap;html=1;fillColor=none;dashed=1;" vertex="1" parent="1">
          <mxGeometry x="215" y="260" width="110" height="360" as="geometry" />
        </mxCell>
        <mxCell id="paAX79Z9PSshwWhRsaFM-17" value="" style="rounded=0;whiteSpace=wrap;html=1;fillColor=none;dashed=1;" vertex="1" parent="1">
          <mxGeometry x="395" y="270" width="110" height="350" as="geometry" />
        </mxCell>
        <mxCell id="paAX79Z9PSshwWhRsaFM-18" value="&lt;div style=&quot;text-align: center;&quot;&gt;shard1_db1&lt;/div&gt;" style="text;whiteSpace=wrap;html=1;" vertex="1" parent="1">
          <mxGeometry x="240" y="300" width="40" height="30" as="geometry" />
        </mxCell>
        <mxCell id="paAX79Z9PSshwWhRsaFM-19" value="&lt;div style=&quot;text-align: center;&quot;&gt;shard1_db2&lt;/div&gt;" style="text;whiteSpace=wrap;html=1;" vertex="1" parent="1">
          <mxGeometry x="240" y="400" width="40" height="30" as="geometry" />
        </mxCell>
        <mxCell id="paAX79Z9PSshwWhRsaFM-20" value="&lt;div style=&quot;text-align: center;&quot;&gt;shard1_db3&lt;/div&gt;" style="text;whiteSpace=wrap;html=1;" vertex="1" parent="1">
          <mxGeometry x="240" y="500" width="40" height="30" as="geometry" />
        </mxCell>
        <mxCell id="paAX79Z9PSshwWhRsaFM-21" value="&lt;div style=&quot;text-align: center;&quot;&gt;shard2_db1&lt;/div&gt;" style="text;whiteSpace=wrap;html=1;" vertex="1" parent="1">
          <mxGeometry x="420" y="300" width="40" height="30" as="geometry" />
        </mxCell>
        <mxCell id="paAX79Z9PSshwWhRsaFM-22" value="&lt;div style=&quot;text-align: center;&quot;&gt;shard2_db2&lt;/div&gt;" style="text;whiteSpace=wrap;html=1;" vertex="1" parent="1">
          <mxGeometry x="420" y="400" width="40" height="30" as="geometry" />
        </mxCell>
        <mxCell id="paAX79Z9PSshwWhRsaFM-23" value="&lt;div style=&quot;text-align: center;&quot;&gt;shard2_db3&lt;/div&gt;" style="text;whiteSpace=wrap;html=1;" vertex="1" parent="1">
          <mxGeometry x="420" y="500" width="40" height="30" as="geometry" />
        </mxCell>
        <mxCell id="paAX79Z9PSshwWhRsaFM-24" style="edgeStyle=orthogonalEdgeStyle;rounded=0;orthogonalLoop=1;jettySize=auto;html=1;entryX=0;entryY=0.5;entryDx=0;entryDy=0;entryPerimeter=0;" edge="1" parent="1" source="paAX79Z9PSshwWhRsaFM-4" target="paAX79Z9PSshwWhRsaFM-7">
          <mxGeometry relative="1" as="geometry" />
        </mxCell>
        <mxCell id="paAX79Z9PSshwWhRsaFM-25" style="edgeStyle=orthogonalEdgeStyle;rounded=0;orthogonalLoop=1;jettySize=auto;html=1;entryX=0.908;entryY=0.967;entryDx=0;entryDy=0;entryPerimeter=0;" edge="1" parent="1" source="paAX79Z9PSshwWhRsaFM-7" target="paAX79Z9PSshwWhRsaFM-6">
          <mxGeometry relative="1" as="geometry">
            <Array as="points">
              <mxPoint x="450" y="250" />
              <mxPoint x="189" y="250" />
            </Array>
          </mxGeometry>
        </mxCell>
        <mxCell id="paAX79Z9PSshwWhRsaFM-26" value="redis" style="shape=cylinder3;whiteSpace=wrap;html=1;boundedLbl=1;backgroundOutline=1;size=15;" vertex="1" parent="1">
          <mxGeometry x="510" y="100" width="80" height="80" as="geometry" />
        </mxCell>
        <mxCell id="paAX79Z9PSshwWhRsaFM-27" style="edgeStyle=orthogonalEdgeStyle;rounded=0;orthogonalLoop=1;jettySize=auto;html=1;entryX=0.5;entryY=0;entryDx=0;entryDy=0;entryPerimeter=0;startArrow=classic;startFill=1;" edge="1" parent="1" source="paAX79Z9PSshwWhRsaFM-1" target="paAX79Z9PSshwWhRsaFM-26">
          <mxGeometry relative="1" as="geometry" />
        </mxCell>
        <mxCell id="paAX79Z9PSshwWhRsaFM-28" value="some else service" style="rounded=1;whiteSpace=wrap;html=1;dashed=1;" vertex="1" parent="1">
          <mxGeometry x="150" y="100" width="120" height="60" as="geometry" />
        </mxCell>
        <mxCell id="paAX79Z9PSshwWhRsaFM-29" value="some else api&#39;s" style="rounded=1;whiteSpace=wrap;html=1;dashed=1;" vertex="1" parent="1">
          <mxGeometry x="150" y="30" width="120" height="60" as="geometry" />
        </mxCell>
        <mxCell id="paAX79Z9PSshwWhRsaFM-31" value="Server instance 1" style="text;html=1;align=center;verticalAlign=middle;whiteSpace=wrap;rounded=0;" vertex="1" parent="1">
          <mxGeometry x="530" y="610" width="60" height="30" as="geometry" />
        </mxCell>
        <mxCell id="paAX79Z9PSshwWhRsaFM-102" style="edgeStyle=orthogonalEdgeStyle;rounded=0;orthogonalLoop=1;jettySize=auto;html=1;entryX=0.5;entryY=1;entryDx=0;entryDy=0;" edge="1" parent="1" source="paAX79Z9PSshwWhRsaFM-64" target="paAX79Z9PSshwWhRsaFM-97">
          <mxGeometry relative="1" as="geometry">
            <Array as="points">
              <mxPoint x="-465" y="-100" />
              <mxPoint x="-340" y="-100" />
            </Array>
          </mxGeometry>
        </mxCell>
        <mxCell id="paAX79Z9PSshwWhRsaFM-64" value="" style="rounded=0;whiteSpace=wrap;html=1;" vertex="1" parent="1">
          <mxGeometry x="-750" width="570" height="650" as="geometry" />
        </mxCell>
        <mxCell id="paAX79Z9PSshwWhRsaFM-65" value="pymongo-api" style="rounded=1;whiteSpace=wrap;html=1;" vertex="1" parent="1">
          <mxGeometry x="-520" y="20" width="120" height="60" as="geometry" />
        </mxCell>
        <mxCell id="paAX79Z9PSshwWhRsaFM-66" style="edgeStyle=orthogonalEdgeStyle;rounded=0;orthogonalLoop=1;jettySize=auto;html=1;exitX=0.5;exitY=1;exitDx=0;exitDy=0;entryX=0.5;entryY=0;entryDx=0;entryDy=0;" edge="1" parent="1" source="paAX79Z9PSshwWhRsaFM-65" target="paAX79Z9PSshwWhRsaFM-68">
          <mxGeometry relative="1" as="geometry">
            <mxPoint x="-490" y="440" as="targetPoint" />
          </mxGeometry>
        </mxCell>
        <mxCell id="paAX79Z9PSshwWhRsaFM-67" style="edgeStyle=orthogonalEdgeStyle;rounded=0;orthogonalLoop=1;jettySize=auto;html=1;entryX=1;entryY=0.5;entryDx=0;entryDy=0;entryPerimeter=0;" edge="1" parent="1" source="paAX79Z9PSshwWhRsaFM-68" target="paAX79Z9PSshwWhRsaFM-74">
          <mxGeometry relative="1" as="geometry">
            <mxPoint x="-460" y="340" as="targetPoint" />
          </mxGeometry>
        </mxCell>
        <mxCell id="paAX79Z9PSshwWhRsaFM-68" value="mongos-router" style="rounded=1;whiteSpace=wrap;html=1;" vertex="1" parent="1">
          <mxGeometry x="-520" y="160" width="120" height="60" as="geometry" />
        </mxCell>
        <mxCell id="paAX79Z9PSshwWhRsaFM-69" style="edgeStyle=orthogonalEdgeStyle;rounded=0;orthogonalLoop=1;jettySize=auto;html=1;entryX=0;entryY=0.5;entryDx=0;entryDy=0;startArrow=classic;startFill=1;" edge="1" parent="1" source="paAX79Z9PSshwWhRsaFM-70" target="paAX79Z9PSshwWhRsaFM-68">
          <mxGeometry relative="1" as="geometry" />
        </mxCell>
        <mxCell id="paAX79Z9PSshwWhRsaFM-70" value="configSrv" style="rounded=1;whiteSpace=wrap;html=1;" vertex="1" parent="1">
          <mxGeometry x="-730" y="160" width="120" height="60" as="geometry" />
        </mxCell>
        <mxCell id="paAX79Z9PSshwWhRsaFM-107" style="edgeStyle=orthogonalEdgeStyle;rounded=0;orthogonalLoop=1;jettySize=auto;html=1;startArrow=classic;startFill=1;exitX=1;exitY=1;exitDx=0;exitDy=-15;exitPerimeter=0;" edge="1" parent="1" source="paAX79Z9PSshwWhRsaFM-71" target="paAX79Z9PSshwWhRsaFM-10">
          <mxGeometry relative="1" as="geometry">
            <mxPoint x="-50" y="330" as="targetPoint" />
            <Array as="points">
              <mxPoint x="90" y="355" />
              <mxPoint x="90" y="355" />
            </Array>
          </mxGeometry>
        </mxCell>
        <mxCell id="paAX79Z9PSshwWhRsaFM-71" value="MongoDB" style="shape=cylinder3;whiteSpace=wrap;html=1;boundedLbl=1;backgroundOutline=1;size=15;" vertex="1" parent="1">
          <mxGeometry x="-400" y="290" width="80" height="80" as="geometry" />
        </mxCell>
        <mxCell id="paAX79Z9PSshwWhRsaFM-72" value="&lt;div style=&quot;text-align: center;&quot;&gt;shard2&lt;/div&gt;" style="text;whiteSpace=wrap;html=1;" vertex="1" parent="1">
          <mxGeometry x="-360" y="260" width="50" height="30" as="geometry" />
        </mxCell>
        <mxCell id="paAX79Z9PSshwWhRsaFM-73" style="edgeStyle=orthogonalEdgeStyle;rounded=0;orthogonalLoop=1;jettySize=auto;html=1;entryX=0.75;entryY=1;entryDx=0;entryDy=0;" edge="1" parent="1" source="paAX79Z9PSshwWhRsaFM-74" target="paAX79Z9PSshwWhRsaFM-70">
          <mxGeometry relative="1" as="geometry" />
        </mxCell>
        <mxCell id="paAX79Z9PSshwWhRsaFM-74" value="MongoDB&lt;br&gt;primary" style="shape=cylinder3;whiteSpace=wrap;html=1;boundedLbl=1;backgroundOutline=1;size=15;" vertex="1" parent="1">
          <mxGeometry x="-580" y="290" width="80" height="80" as="geometry" />
        </mxCell>
        <mxCell id="paAX79Z9PSshwWhRsaFM-75" value="&lt;div style=&quot;text-align: center;&quot;&gt;shard1&lt;/div&gt;" style="text;whiteSpace=wrap;html=1;" vertex="1" parent="1">
          <mxGeometry x="-560" y="250" width="40" height="30" as="geometry" />
        </mxCell>
        <mxCell id="paAX79Z9PSshwWhRsaFM-76" value="MongoDB&lt;div&gt;Sec&lt;/div&gt;" style="shape=cylinder3;whiteSpace=wrap;html=1;boundedLbl=1;backgroundOutline=1;size=15;" vertex="1" parent="1">
          <mxGeometry x="-580" y="390" width="80" height="80" as="geometry" />
        </mxCell>
        <mxCell id="paAX79Z9PSshwWhRsaFM-77" value="MongoDB&lt;div&gt;Sec&lt;/div&gt;" style="shape=cylinder3;whiteSpace=wrap;html=1;boundedLbl=1;backgroundOutline=1;size=15;" vertex="1" parent="1">
          <mxGeometry x="-580" y="490" width="80" height="80" as="geometry" />
        </mxCell>
        <mxCell id="paAX79Z9PSshwWhRsaFM-78" value="MongoDB" style="shape=cylinder3;whiteSpace=wrap;html=1;boundedLbl=1;backgroundOutline=1;size=15;" vertex="1" parent="1">
          <mxGeometry x="-400" y="390" width="80" height="80" as="geometry" />
        </mxCell>
        <mxCell id="paAX79Z9PSshwWhRsaFM-79" value="MongoDB" style="shape=cylinder3;whiteSpace=wrap;html=1;boundedLbl=1;backgroundOutline=1;size=15;" vertex="1" parent="1">
          <mxGeometry x="-400" y="490" width="80" height="80" as="geometry" />
        </mxCell>
        <mxCell id="paAX79Z9PSshwWhRsaFM-80" value="" style="rounded=0;whiteSpace=wrap;html=1;fillColor=none;dashed=1;" vertex="1" parent="1">
          <mxGeometry x="-595" y="250" width="110" height="360" as="geometry" />
        </mxCell>
        <mxCell id="paAX79Z9PSshwWhRsaFM-81" value="" style="rounded=0;whiteSpace=wrap;html=1;fillColor=none;dashed=1;" vertex="1" parent="1">
          <mxGeometry x="-413" y="250" width="110" height="360" as="geometry" />
        </mxCell>
        <mxCell id="paAX79Z9PSshwWhRsaFM-82" value="&lt;div style=&quot;text-align: center;&quot;&gt;shard1_db1&lt;/div&gt;" style="text;whiteSpace=wrap;html=1;" vertex="1" parent="1">
          <mxGeometry x="-570" y="290" width="40" height="30" as="geometry" />
        </mxCell>
        <mxCell id="paAX79Z9PSshwWhRsaFM-83" value="&lt;div style=&quot;text-align: center;&quot;&gt;shard1_db2&lt;/div&gt;" style="text;whiteSpace=wrap;html=1;" vertex="1" parent="1">
          <mxGeometry x="-570" y="390" width="40" height="30" as="geometry" />
        </mxCell>
        <mxCell id="paAX79Z9PSshwWhRsaFM-84" value="&lt;div style=&quot;text-align: center;&quot;&gt;shard1_db3&lt;/div&gt;" style="text;whiteSpace=wrap;html=1;" vertex="1" parent="1">
          <mxGeometry x="-570" y="490" width="40" height="30" as="geometry" />
        </mxCell>
        <mxCell id="paAX79Z9PSshwWhRsaFM-85" value="&lt;div style=&quot;text-align: center;&quot;&gt;shard2_db1&lt;/div&gt;" style="text;whiteSpace=wrap;html=1;" vertex="1" parent="1">
          <mxGeometry x="-390" y="290" width="40" height="30" as="geometry" />
        </mxCell>
        <mxCell id="paAX79Z9PSshwWhRsaFM-86" value="&lt;div style=&quot;text-align: center;&quot;&gt;shard2_db2&lt;/div&gt;" style="text;whiteSpace=wrap;html=1;" vertex="1" parent="1">
          <mxGeometry x="-390" y="390" width="40" height="30" as="geometry" />
        </mxCell>
        <mxCell id="paAX79Z9PSshwWhRsaFM-87" value="&lt;div style=&quot;text-align: center;&quot;&gt;shard2_db3&lt;/div&gt;" style="text;whiteSpace=wrap;html=1;" vertex="1" parent="1">
          <mxGeometry x="-390" y="490" width="40" height="30" as="geometry" />
        </mxCell>
        <mxCell id="paAX79Z9PSshwWhRsaFM-88" style="edgeStyle=orthogonalEdgeStyle;rounded=0;orthogonalLoop=1;jettySize=auto;html=1;entryX=0;entryY=0.5;entryDx=0;entryDy=0;entryPerimeter=0;" edge="1" parent="1" source="paAX79Z9PSshwWhRsaFM-68" target="paAX79Z9PSshwWhRsaFM-71">
          <mxGeometry relative="1" as="geometry" />
        </mxCell>
        <mxCell id="paAX79Z9PSshwWhRsaFM-89" style="edgeStyle=orthogonalEdgeStyle;rounded=0;orthogonalLoop=1;jettySize=auto;html=1;entryX=0.908;entryY=0.967;entryDx=0;entryDy=0;entryPerimeter=0;" edge="1" parent="1" source="paAX79Z9PSshwWhRsaFM-71" target="paAX79Z9PSshwWhRsaFM-70">
          <mxGeometry relative="1" as="geometry">
            <Array as="points">
              <mxPoint x="-360" y="240" />
              <mxPoint x="-621" y="240" />
            </Array>
          </mxGeometry>
        </mxCell>
        <mxCell id="paAX79Z9PSshwWhRsaFM-90" value="redis" style="shape=cylinder3;whiteSpace=wrap;html=1;boundedLbl=1;backgroundOutline=1;size=15;" vertex="1" parent="1">
          <mxGeometry x="-300" y="90" width="80" height="80" as="geometry" />
        </mxCell>
        <mxCell id="paAX79Z9PSshwWhRsaFM-91" style="edgeStyle=orthogonalEdgeStyle;rounded=0;orthogonalLoop=1;jettySize=auto;html=1;entryX=0.5;entryY=0;entryDx=0;entryDy=0;entryPerimeter=0;startArrow=classic;startFill=1;" edge="1" parent="1" source="paAX79Z9PSshwWhRsaFM-65" target="paAX79Z9PSshwWhRsaFM-90">
          <mxGeometry relative="1" as="geometry" />
        </mxCell>
        <mxCell id="paAX79Z9PSshwWhRsaFM-92" value="some else service" style="rounded=1;whiteSpace=wrap;html=1;dashed=1;" vertex="1" parent="1">
          <mxGeometry x="-660" y="90" width="120" height="60" as="geometry" />
        </mxCell>
        <mxCell id="paAX79Z9PSshwWhRsaFM-93" value="some else api&#39;s" style="rounded=1;whiteSpace=wrap;html=1;dashed=1;" vertex="1" parent="1">
          <mxGeometry x="-660" y="20" width="120" height="60" as="geometry" />
        </mxCell>
        <mxCell id="paAX79Z9PSshwWhRsaFM-94" value="Server instance 2" style="text;html=1;align=center;verticalAlign=middle;whiteSpace=wrap;rounded=0;" vertex="1" parent="1">
          <mxGeometry x="-280" y="600" width="60" height="30" as="geometry" />
        </mxCell>
        <mxCell id="paAX79Z9PSshwWhRsaFM-95" value="Gateway API&lt;div&gt;&lt;span style=&quot;color: rgba(0, 0, 0, 0.85); font-family: &amp;quot;YS Text&amp;quot;, sans-serif; text-align: start; white-space-collapse: preserve; background-color: rgb(255, 255, 255);&quot;&gt;&lt;font style=&quot;font-size: 9px;&quot;&gt;APISIX Gateway&lt;/font&gt;&lt;/span&gt;&lt;/div&gt;" style="rounded=0;whiteSpace=wrap;html=1;" vertex="1" parent="1">
          <mxGeometry x="-740" y="-510" width="1480" height="90" as="geometry" />
        </mxCell>
        <mxCell id="paAX79Z9PSshwWhRsaFM-104" style="edgeStyle=orthogonalEdgeStyle;rounded=0;orthogonalLoop=1;jettySize=auto;html=1;startArrow=classic;startFill=1;" edge="1" parent="1" source="paAX79Z9PSshwWhRsaFM-96" target="paAX79Z9PSshwWhRsaFM-97">
          <mxGeometry relative="1" as="geometry" />
        </mxCell>
        <mxCell id="paAX79Z9PSshwWhRsaFM-96" value="consul_kv" style="rounded=0;whiteSpace=wrap;html=1;" vertex="1" parent="1">
          <mxGeometry x="-405" y="-490" width="130" height="60" as="geometry" />
        </mxCell>
        <mxCell id="paAX79Z9PSshwWhRsaFM-97" value="Consul" style="rounded=0;whiteSpace=wrap;html=1;" vertex="1" parent="1">
          <mxGeometry x="-440" y="-300" width="200" height="90" as="geometry" />
        </mxCell>
        <mxCell id="paAX79Z9PSshwWhRsaFM-101" style="edgeStyle=orthogonalEdgeStyle;rounded=0;orthogonalLoop=1;jettySize=auto;html=1;entryX=0.5;entryY=0;entryDx=0;entryDy=0;startArrow=classic;startFill=1;" edge="1" parent="1" source="paAX79Z9PSshwWhRsaFM-98" target="paAX79Z9PSshwWhRsaFM-95">
          <mxGeometry relative="1" as="geometry" />
        </mxCell>
        <mxCell id="paAX79Z9PSshwWhRsaFM-98" value="FrontEnd" style="rounded=0;whiteSpace=wrap;html=1;" vertex="1" parent="1">
          <mxGeometry x="-740" y="-640" width="1480" height="90" as="geometry" />
        </mxCell>
        <mxCell id="paAX79Z9PSshwWhRsaFM-100" style="edgeStyle=orthogonalEdgeStyle;rounded=0;orthogonalLoop=1;jettySize=auto;html=1;entryX=0.5;entryY=0;entryDx=0;entryDy=0;" edge="1" parent="1" source="paAX79Z9PSshwWhRsaFM-99" target="paAX79Z9PSshwWhRsaFM-98">
          <mxGeometry relative="1" as="geometry" />
        </mxCell>
        <mxCell id="paAX79Z9PSshwWhRsaFM-99" value="Actor" style="shape=umlActor;verticalLabelPosition=bottom;verticalAlign=top;html=1;outlineConnect=0;" vertex="1" parent="1">
          <mxGeometry x="-15" y="-840" width="30" height="60" as="geometry" />
        </mxCell>
        <mxCell id="paAX79Z9PSshwWhRsaFM-105" style="edgeStyle=orthogonalEdgeStyle;rounded=0;orthogonalLoop=1;jettySize=auto;html=1;entryX=0.71;entryY=-0.003;entryDx=0;entryDy=0;entryPerimeter=0;startArrow=classic;startFill=1;" edge="1" parent="1" source="paAX79Z9PSshwWhRsaFM-95" target="paAX79Z9PSshwWhRsaFM-30">
          <mxGeometry relative="1" as="geometry">
            <Array as="points">
              <mxPoint y="-160" />
              <mxPoint x="465" y="-160" />
            </Array>
          </mxGeometry>
        </mxCell>
        <mxCell id="paAX79Z9PSshwWhRsaFM-106" style="edgeStyle=orthogonalEdgeStyle;rounded=0;orthogonalLoop=1;jettySize=auto;html=1;entryX=0.381;entryY=0.007;entryDx=0;entryDy=0;entryPerimeter=0;startArrow=classic;startFill=1;" edge="1" parent="1" source="paAX79Z9PSshwWhRsaFM-95" target="paAX79Z9PSshwWhRsaFM-64">
          <mxGeometry relative="1" as="geometry">
            <Array as="points">
              <mxPoint y="-160" />
              <mxPoint x="-533" y="-160" />
            </Array>
          </mxGeometry>
        </mxCell>
        <mxCell id="paAX79Z9PSshwWhRsaFM-108" style="edgeStyle=orthogonalEdgeStyle;rounded=0;orthogonalLoop=1;jettySize=auto;html=1;entryX=0;entryY=1;entryDx=0;entryDy=-15;entryPerimeter=0;exitX=1;exitY=1;exitDx=0;exitDy=-15;exitPerimeter=0;startArrow=classic;startFill=1;" edge="1" parent="1" source="paAX79Z9PSshwWhRsaFM-74" target="paAX79Z9PSshwWhRsaFM-71">
          <mxGeometry relative="1" as="geometry" />
        </mxCell>
        <mxCell id="paAX79Z9PSshwWhRsaFM-109" style="edgeStyle=orthogonalEdgeStyle;rounded=0;orthogonalLoop=1;jettySize=auto;html=1;entryX=1.004;entryY=0.779;entryDx=0;entryDy=0;entryPerimeter=0;exitX=0.004;exitY=0.775;exitDx=0;exitDy=0;exitPerimeter=0;startArrow=classic;startFill=1;" edge="1" parent="1" source="paAX79Z9PSshwWhRsaFM-7" target="paAX79Z9PSshwWhRsaFM-10">
          <mxGeometry relative="1" as="geometry" />
        </mxCell>
        <mxCell id="paAX79Z9PSshwWhRsaFM-110" value="&lt;h1 style=&quot;margin-top: 0px;&quot;&gt;&lt;p class=&quot;p1&quot; style=&quot;margin: 0px 0px 0px 21px; font-variant-numeric: normal; font-variant-east-asian: normal; font-variant-alternates: normal; font-kerning: auto; font-optical-sizing: auto; font-feature-settings: normal; font-variation-settings: normal; font-variant-position: normal; font-stretch: normal; line-height: normal; text-indent: -21px;&quot;&gt;&lt;font style=&quot;font-size: 18px;&quot;&gt;&lt;span style=&quot;text-align: center; text-indent: 0px;&quot;&gt;Server instance1,&amp;nbsp;&lt;/span&gt;&lt;span style=&quot;text-align: center; text-indent: 0px;&quot;&gt;Server instance2&lt;/span&gt;&lt;/font&gt;&lt;span style=&quot;font-size: 23px; text-align: center; text-indent: 0px;&quot;&gt;&amp;nbsp;&lt;/span&gt;&lt;b style=&quot;font-size: 15px; color: rgb(14, 14, 14); background-color: initial;&quot;&gt;-&amp;nbsp;&lt;/b&gt;&lt;span style=&quot;background-color: initial; font-size: 16px; font-weight: 400;&quot;&gt;&lt;font color=&quot;#0e0e0e&quot;&gt;Экземпляры серверов онлайн-магазина включают бэкенд, который состоит из нескольких микросервисов, включая pymongo-api, взаимодействующий с базой данных MongoDB&lt;/font&gt;&lt;/span&gt;&lt;/p&gt;&lt;p class=&quot;p1&quot; style=&quot;margin: 0px 0px 0px 21px; font-variant-numeric: normal; font-variant-east-asian: normal; font-variant-alternates: normal; font-kerning: auto; font-optical-sizing: auto; font-feature-settings: normal; font-variation-settings: normal; font-variant-position: normal; font-stretch: normal; line-height: normal; text-indent: -21px;&quot;&gt;&lt;span style=&quot;background-color: initial; font-size: 15px; text-align: center;&quot;&gt;&lt;font style=&quot;font-size: 18px;&quot;&gt;Gateway API&lt;/font&gt;&lt;/span&gt;&lt;span style=&quot;background-color: initial; font-weight: normal; text-align: center; font-size: 23px;&quot;&gt; -&amp;nbsp;&lt;/span&gt;&lt;span style=&quot;color: rgb(14, 14, 14); background-color: initial; font-size: 16px; font-weight: 400;&quot;&gt;API-шлюз, реализованный на основе APISIX Gateway, включает в себя встроенный инструмент Consul&lt;/span&gt;&lt;/p&gt;&lt;/h1&gt;&lt;div&gt;&lt;h1 style=&quot;margin-top: 0px;&quot;&gt;&lt;span style=&quot;text-align: center;&quot;&gt;&lt;font style=&quot;font-size: 18px;&quot;&gt;consul_kv &lt;/font&gt;&lt;/span&gt;&lt;span style=&quot;text-align: center; font-size: 23px;&quot;&gt;-&lt;/span&gt;&lt;span style=&quot;background-color: initial; color: rgb(14, 14, 14); font-size: 16px; font-weight: normal; text-indent: -21px;&quot;&gt;&amp;nbsp;хранилище данных типа ключ-значение&lt;/span&gt;&lt;/h1&gt;&lt;/div&gt;&lt;div&gt;&lt;h1 style=&quot;text-indent: -21px; margin-top: 0px;&quot;&gt;&lt;span style=&quot;text-align: center; font-size: 23px;&quot;&gt;&amp;nbsp; &amp;nbsp;&lt;/span&gt;&lt;span style=&quot;text-align: center;&quot;&gt;&lt;font style=&quot;font-size: 18px;&quot;&gt;Consul &lt;/font&gt;&lt;/span&gt;&lt;span style=&quot;text-align: center; font-size: 23px;&quot;&gt;- &lt;/span&gt;&lt;span style=&quot;text-align: center; font-size: 16px; font-weight: 400;&quot;&gt;&lt;font color=&quot;#0e0e0e&quot;&gt;реестр обнаружения и регистрации сервисов&lt;/font&gt;&lt;/span&gt;&lt;/h1&gt;&lt;/div&gt;" style="text;html=1;whiteSpace=wrap;overflow=hidden;rounded=0;fontSize=15;" vertex="1" parent="1">
          <mxGeometry x="-750" y="700" width="570" height="340" as="geometry" />
        </mxCell>
        <mxCell id="paAX79Z9PSshwWhRsaFM-111" value="&lt;h1 style=&quot;margin-top: 0px;&quot;&gt;&lt;p class=&quot;p1&quot; style=&quot;text-indent: 0px; margin: 0px 0px 0px 21px; font-variant-numeric: normal; font-variant-east-asian: normal; font-variant-alternates: normal; font-kerning: auto; font-optical-sizing: auto; font-feature-settings: normal; font-variation-settings: normal; font-variant-position: normal; font-stretch: normal; line-height: normal;&quot;&gt;&lt;span style=&quot;font-size: 18px;&quot;&gt;pymongo-api&lt;/span&gt;&lt;span style=&quot;font-size: 18px; font-weight: normal;&quot;&gt; - это серверная API, реализующая методы для операций создания, чтения, обновления и удаления (CRUD).&lt;/span&gt;&lt;br&gt;&lt;/p&gt;&lt;p class=&quot;p1&quot; style=&quot;margin: 0px 0px 0px 21px; text-indent: -21px; font-variant-numeric: normal; font-variant-east-asian: normal; font-variant-alternates: normal; font-kerning: auto; font-optical-sizing: auto; font-feature-settings: normal; font-variation-settings: normal; font-variant-position: normal; font-stretch: normal; line-height: normal;&quot;&gt;&lt;span style=&quot;background-color: initial; text-indent: 0px;&quot;&gt;&lt;font style=&quot;font-size: 18px;&quot;&gt;mongos-router&lt;/font&gt;&lt;span style=&quot;font-size: 23px;&quot;&gt;&amp;nbsp;&lt;span style=&quot;font-weight: normal;&quot;&gt;-&amp;nbsp;&lt;/span&gt;&lt;/span&gt;&lt;/span&gt;&lt;span style=&quot;font-size: 18px; background-color: rgb(255, 255, 255); color: rgba(0, 0, 0, 0.85); font-family: &amp;quot;YS Text&amp;quot;, sans-serif; font-weight: 400; white-space-collapse: preserve-breaks;&quot;&gt;роутер определяет, на какой shard[1..n] отправить запрос.&lt;/span&gt;&lt;/p&gt;&lt;p class=&quot;p1&quot; style=&quot;margin: 0px 0px 0px 21px; text-indent: -21px; font-variant-numeric: normal; font-variant-east-asian: normal; font-variant-alternates: normal; font-kerning: auto; font-optical-sizing: auto; font-feature-settings: normal; font-variation-settings: normal; font-variant-position: normal; font-stretch: normal; line-height: normal;&quot;&gt;&lt;span style=&quot;background-color: initial; font-size: 18px;&quot;&gt;configSrv&lt;/span&gt;&lt;span style=&quot;background-color: initial; font-size: 18px; font-weight: normal;&quot;&gt; - это конфигурационный сервер, который хранит метаданные кластера. Эти метаданные содержат информацию о распределении данных кластера по шардам.&lt;/span&gt;&lt;/p&gt;&lt;div style=&quot;&quot;&gt;&lt;span style=&quot;background-color: initial; font-size: 18px;&quot;&gt;shard1&lt;/span&gt;&lt;span style=&quot;background-color: initial; font-size: 18px; font-weight: normal;&quot;&gt;, &lt;/span&gt;&lt;span style=&quot;background-color: initial; font-size: 18px;&quot;&gt;shard2&lt;/span&gt;&lt;span style=&quot;background-color: initial; font-size: 18px; font-weight: normal;&quot;&gt;... &lt;/span&gt;&lt;span style=&quot;background-color: initial; font-size: 18px;&quot;&gt;shardN&lt;/span&gt;&lt;span style=&quot;background-color: initial; font-size: 18px; font-weight: normal;&quot;&gt;, используются для хранения данных, и каждый из них представляет собой отдельные реплицируемые БД&lt;/span&gt;&lt;/div&gt;&lt;div style=&quot;&quot;&gt;&lt;span style=&quot;font-size: 18px;&quot;&gt;redis &lt;/span&gt;&lt;span style=&quot;font-size: 18px; font-weight: 400;&quot;&gt;- временное хранение в памяти данных&amp;nbsp;&lt;/span&gt;&lt;/div&gt;&lt;/h1&gt;" style="text;html=1;whiteSpace=wrap;overflow=hidden;rounded=0;fontSize=15;align=left;" vertex="1" parent="1">
          <mxGeometry x="60" y="700" width="450" height="495" as="geometry" />
        </mxCell>
      </root>
    </mxGraphModel>
  </diagram>
</mxfile>
